<svg xmlns="http://www.w3.org/2000/svg" xmlns:xlink="http://www.w3.org/1999/xlink" version="1.1" x="0px" y="0px" viewBox="0 0 100 125" enable-background="new 0 0 100 100" xml:space="preserve"><path d="M94.994,62.6h-6.063V28.799H11.069V62.6H5.006v3.32H15c-0.001,0.051-0.011,0.099-0.011,0.151c0,2.833,2.297,5.13,5.13,5.13  c2.833,0,5.13-2.297,5.13-5.13c0-0.051-0.01-0.1-0.011-0.151h2.438c-0.001,0.051-0.011,0.099-0.011,0.151  c0,2.833,2.297,5.13,5.131,5.13c2.833,0,5.13-2.297,5.13-5.13c0-0.051-0.01-0.1-0.011-0.151h24.17  c-0.002,0.051-0.011,0.099-0.011,0.151c0,2.833,2.297,5.13,5.13,5.13s5.13-2.297,5.13-5.13c0-0.051-0.01-0.1-0.011-0.151h2.438  c-0.002,0.051-0.011,0.099-0.011,0.151c0,2.833,2.297,5.13,5.131,5.13c2.833,0,5.13-2.297,5.13-5.13c0-0.051-0.01-0.1-0.011-0.151  h9.995V62.6z M23.772,50.442l-4.753,0.018c-1.494,0.006-2.721-1.212-2.726-2.706l-0.034-8.827c-0.006-1.494,1.212-2.721,2.706-2.727  l4.753-0.018c1.494-0.006,2.721,1.212,2.727,2.706l0.034,8.827C26.483,49.209,25.266,50.436,23.772,50.442z M38.219,50.084  l-4.753,0.018c-1.494,0.006-2.721-1.212-2.727-2.706l-0.034-8.827c-0.006-1.494,1.212-2.721,2.706-2.727l4.753-0.018  c1.494-0.006,2.721,1.212,2.727,2.706l0.034,8.827C40.93,48.852,39.712,50.079,38.219,50.084z M52.667,50.18l-4.753,0.018  c-1.494,0.006-2.721-1.212-2.727-2.706l-0.034-8.827c-0.006-1.494,1.212-2.721,2.706-2.727l4.753-0.018  c1.494-0.006,2.721,1.212,2.726,2.706l0.034,8.827C55.379,48.947,54.161,50.174,52.667,50.18z M67.117,50.426l-4.753,0.018  c-1.494,0.006-2.721-1.212-2.727-2.706l-0.034-8.827c-0.006-1.494,1.212-2.721,2.706-2.727l4.753-0.018  c1.494-0.006,2.721,1.212,2.727,2.706l0.034,8.827C69.828,49.193,68.611,50.42,67.117,50.426z M81.565,50.521l-4.753,0.018  c-1.494,0.006-2.721-1.212-2.727-2.706l-0.034-8.827c-0.006-1.494,1.212-2.721,2.706-2.727l4.753-0.018  c1.494-0.006,2.721,1.212,2.727,2.706l0.034,8.827C84.277,49.288,83.06,50.515,81.565,50.521z"/><text x="0" y="115" fill="#000000" font-size="5px" font-weight="bold" font-family="'Helvetica Neue', Helvetica, Arial-Unicode, Arial, Sans-serif"></text><text x="0" y="120" fill="#000000" font-size="5px" font-weight="bold" font-family="'Helvetica Neue', Helvetica, Arial-Unicode, Arial, Sans-serif"></text></svg>