<svg xmlns="http://www.w3.org/2000/svg" xmlns:xlink="http://www.w3.org/1999/xlink" version="1.1" x="0px" y="0px" viewBox="0 0 100 125" enable-background="new 0 0 100 100" xml:space="preserve"><ellipse cx="76.6913452" cy="66.6876221" rx="4.9539795" ry="4.9443359"/><ellipse cx="66.7833862" cy="66.6876221" rx="4.9539795" ry="4.9443359"/><ellipse cx="56.8753662" cy="66.6876221" rx="4.9539795" ry="4.9443359"/><ellipse cx="46.9674072" cy="66.6876221" rx="4.9539795" ry="4.9443359"/><path d="M94.171875,73.0664063H6c-0.5522461,0-1,0.4477539-1,1s0.4477539,1,1,1h88.171875c0.5522461,0,1-0.4477539,1-1  S94.7241211,73.0664063,94.171875,73.0664063z"/><path d="M40.3950195,65.425293c0.59375-3.2756958,3.4570313-5.7557983,6.9051514-5.7557983h29.4021606  c3.4481201,0,6.3114014,2.4801025,6.9051514,5.7557373c0.130127,0.7178955,0.7150879,1.2623901,1.4447021,1.2623901h8.2496948  C94.2397461,66.6876221,95,65.9273682,95,64.989502V58.906311c0-7.8964844-2.2351685-15.6315918-6.4470215-22.3109741  C84.93396,30.8560791,78.6234741,27.375,71.838501,27.375H5.3327637v39.3126221h33.6176147  C39.6799316,66.6876221,40.2648926,66.1431885,40.3950195,65.425293z M72.9935303,35.0949097  c0-1.6643677,1.3492432-3.0136108,3.0136108-3.0136108c2.5204468,0,4.8668213,1.2855225,6.2234497,3.409729l3.7496338,5.8711548  c1.5081787,2.3615112-0.1878662,5.4572144-2.9899292,5.4572144h-7.0863037c-1.6074219,0-2.9104614-1.3030396-2.9104614-2.9104614  V35.0949097z M9.7246704,43.8469849v-8.793335c0-1.6416016,1.3308105-2.9723511,2.9724121-2.9723511h50.3884277  c1.6416626,0,2.9724121,1.3307495,2.9724121,2.9723511v8.793335c0,1.6416016-1.3307495,2.9724121-2.9724121,2.9724121H12.6970825  C11.055481,46.819397,9.7246704,45.4885864,9.7246704,43.8469849z"/><text x="0" y="115" fill="#000000" font-size="5px" font-weight="bold" font-family="'Helvetica Neue', Helvetica, Arial-Unicode, Arial, Sans-serif"></text><text x="0" y="120" fill="#000000" font-size="5px" font-weight="bold" font-family="'Helvetica Neue', Helvetica, Arial-Unicode, Arial, Sans-serif"></text></svg>