<svg xmlns="http://www.w3.org/2000/svg" viewBox="0 0 36 45" x="0px" y="0px"><title>Монтажная область 91</title><path d="M31,9H5a3.00879,3.00879,0,0,0-3,3v8a2.98294,2.98294,0,0,0,1.4,2.53A2.94177,2.94177,0,0,0,3,24a3.00009,3.00009,0,1,0,5.82-1h2.36a3.00009,3.00009,0,1,0,5.64,0h2.36a3.00009,3.00009,0,1,0,5.64,0h2.36a3.00009,3.00009,0,1,0,5.64,0H33a1.003,1.003,0,0,0,1-1V12A3.00879,3.00879,0,0,0,31,9ZM16,18a.99943.99943,0,0,1-1,1H9a.99943.99943,0,0,1-1-1V14a.99943.99943,0,0,1,1-1h6a.99943.99943,0,0,1,1,1Zm12,0a.99943.99943,0,0,1-1,1H21a.99943.99943,0,0,1-1-1V14a.99943.99943,0,0,1,1-1h6a.99943.99943,0,0,1,1,1Z"/><text x="0" y="51" fill="#000000" font-size="5px" font-weight="bold" font-family="'Helvetica Neue', Helvetica, Arial-Unicode, Arial, Sans-serif">Created by Solomakhina Maria</text><text x="0" y="56" fill="#000000" font-size="5px" font-weight="bold" font-family="'Helvetica Neue', Helvetica, Arial-Unicode, Arial, Sans-serif">from the Noun Project</text></svg>