<svg xmlns="http://www.w3.org/2000/svg" xmlns:xlink="http://www.w3.org/1999/xlink" version="1.1" x="0px" y="0px" viewBox="0 0 64 80" style="enable-background:new 0 0 64 64;" xml:space="preserve"><g><g><path d="M50,24h-2c-0.4,0-0.7,0.1-1,0.2V9c0-3.3-2.7-6-6-6H23c-3.3,0-6,2.7-6,6v15.2c-0.3-0.1-0.6-0.2-1-0.2h-2c-1.7,0-3,1.3-3,3    v20c0,1.3,0.8,2.4,2,2.8V53c0,0.6,0.4,1,1,1h1v6c0,0.6,0.4,1,1,1h4c0.4,0,0.8-0.2,0.9-0.6l2.7-6.4h16.7l2.7,6.4    c0.2,0.4,0.5,0.6,0.9,0.6h4c0.6,0,1-0.4,1-1v-6h1c0.6,0,1-0.4,1-1v-3.2c1.2-0.4,2-1.5,2-2.8V27C53,25.3,51.7,24,50,24z M19,9    c0-2.2,1.8-4,4-4h18c2.2,0,4,1.8,4,4v18v2v3.5c-1.1-1-2.5-1.5-4-1.5H23c-1.5,0-2.9,0.6-4,1.5V28v-1V9z M19,37c0-2.2,1.8-4,4-4h18    c2.2,0,4,1.8,4,4v5H19V37z M19.3,59H17v-5h4.5L19.3,59z M47,59h-2.3l-2.1-5H47V59z M49,52h-1h-7H23h-7h-1v-2h34V52z M51,47    c0,0.6-0.4,1-1,1H14c-0.6,0-1-0.4-1-1V27c0-0.6,0.4-1,1-1h2c0.6,0,1,0.4,1,1v1v9v6c0,0.6,0.4,1,1,1h28c0.6,0,1-0.4,1-1v-6v-8v-2    c0-0.6,0.4-1,1-1h2c0.6,0,1,0.4,1,1V47z"/><path d="M28.3,22.7c0.2,0.2,0.5,0.3,0.7,0.3s0.5-0.1,0.7-0.3l2.3-2.3l2.3,2.3c0.2,0.2,0.5,0.3,0.7,0.3s0.5-0.1,0.7-0.3    c0.4-0.4,0.4-1,0-1.4L33.4,19l2.3-2.3c0.4-0.4,0.4-1,0-1.4s-1-0.4-1.4,0L32,17.6l-2.3-2.3c-0.4-0.4-1-0.4-1.4,0s-0.4,1,0,1.4    l2.3,2.3l-2.3,2.3C27.9,21.7,27.9,22.3,28.3,22.7z"/></g></g><text x="0" y="79" fill="#000000" font-size="5px" font-weight="bold" font-family="'Helvetica Neue', Helvetica, Arial-Unicode, Arial, Sans-serif">Created by Cahya Kurniawan</text><text x="0" y="84" fill="#000000" font-size="5px" font-weight="bold" font-family="'Helvetica Neue', Helvetica, Arial-Unicode, Arial, Sans-serif">from the Noun Project</text></svg>