<?xml version="1.0" encoding="utf-8"?><!-- Uploaded to: SVG Repo, www.svgrepo.com, Generator: SVG Repo Mixer Tools -->
<svg width="800px" height="800px" viewBox="0 0 24 24" fill="none" xmlns="http://www.w3.org/2000/svg">
<path d="M11 12C11 12.5523 10.5523 13 10 13C9.44773 13 9.00002 12.5523 9.00002 12C9.00002 11.4477 9.44773 11 10 11C10.5523 11 11 11.4477 11 12Z" fill="#0F0F0F"/>
<path d="M14 13C14.5523 13 15 12.5523 15 12C15 11.4477 14.5523 11 14 11C13.4477 11 13 11.4477 13 12C13 12.5523 13.4477 13 14 13Z" fill="#0F0F0F"/>
<path fill-rule="evenodd" clip-rule="evenodd" d="M19 4C19 2.34315 17.6569 1 16 1H8.00002C6.34316 1 5.00002 2.34315 5.00002 4V13C5.00002 14.4869 6.08177 15.7212 7.50122 15.9587L5.08087 21.6062C4.86331 22.1138 5.09846 22.7017 5.60609 22.9193C6.11372 23.1368 6.7016 22.9017 6.91916 22.394L7.08803 22H16.912L17.0809 22.394C17.2984 22.9017 17.8863 23.1368 18.3939 22.9193C18.9016 22.7017 19.1367 22.1138 18.9192 21.6062L16.4988 15.9587C17.9183 15.7212 19 14.4869 19 13V4ZM16.0549 20H7.94517L8.37374 19H15.6263L16.0549 20ZM14.7691 17H9.23089L9.65946 16H14.3406L14.7691 17ZM17 4C17 3.44772 16.5523 3 16 3H13V8H17V4ZM11 8V3H8.00002C7.44773 3 7.00002 3.44771 7.00002 4V8H11ZM7.00002 13V10H17V13C17 13.5523 16.5523 14 16 14H8.00002C7.44773 14 7.00002 13.5523 7.00002 13Z" fill="#0F0F0F"/>
</svg>